<svg width="74" height="74" viewBox="0 0 74 74" fill="none" xmlns="http://www.w3.org/2000/svg">
<circle cx="37.4513" cy="36.7677" r="36.5" fill="#AF9469"/>
<path d="M40.9334 44.3741H26.5095C26.2651 44.3741 26.0306 44.4713 25.8577 44.6441C25.6849 44.817 25.5878 45.0514 25.5878 45.2959C25.5878 45.5404 25.6849 45.7748 25.8577 45.9477C26.0306 46.1206 26.2651 46.2177 26.5095 46.2177H40.2165C40.2329 45.5383 40.4866 44.8861 40.9334 44.3741Z" fill="white"/>
<path d="M47.4114 32.2888H26.5095C26.2651 32.2888 26.0306 32.3859 25.8577 32.5588C25.6849 32.7317 25.5878 32.9661 25.5878 33.2106C25.5878 33.455 25.6849 33.6895 25.8577 33.8624C26.0306 34.0352 26.2651 34.1323 26.5095 34.1323H47.4114C47.6559 34.1323 47.8903 34.0352 48.0632 33.8624C48.236 33.6895 48.3332 33.455 48.3332 33.2106C48.3332 32.9661 48.236 32.7317 48.0632 32.5588C47.8903 32.3859 47.6559 32.2888 47.4114 32.2888Z" fill="white"/>
<path d="M52.575 45.3642V57.8677C52.575 57.9922 52.5255 58.1116 52.4375 58.1996C52.3495 58.2877 52.2301 58.3371 52.1056 58.3371H22.6347C22.5102 58.3371 22.3908 58.2877 22.3028 58.1996C22.2148 58.1116 22.1653 57.9922 22.1653 57.8677V15.9275C22.1676 15.8044 22.218 15.6872 22.3058 15.601C22.3936 15.5148 22.5117 15.4666 22.6347 15.4666H44.9192V22.5932C44.9215 22.9199 45.0529 23.2325 45.2847 23.4627C45.5166 23.693 45.83 23.8222 46.1568 23.8222H52.575V26.3826C52.6347 26.3826 53.0956 25.5292 53.1639 25.5292C53.7699 24.7184 54.0174 24.8037 54.4271 24.6757H55.016V22.064L46.6945 13H22.6347C21.859 13.0023 21.1157 13.3114 20.5672 13.8599C20.0187 14.4084 19.7095 15.1517 19.7073 15.9275V57.8677C19.7095 58.6434 20.0187 59.3867 20.5672 59.9352C21.1157 60.4838 21.859 60.7929 22.6347 60.7952H52.1056C52.8813 60.7929 53.6246 60.4838 54.1731 59.9352C54.7216 59.3867 55.0308 58.6434 55.033 57.8677V41.3869C54.7599 41.7624 54.4953 42.1551 54.2478 42.5562C53.5809 43.4226 53.0193 44.3652 52.575 45.3642ZM47.3858 17.3869L51.0387 21.3556H47.3858V17.3869Z" fill="white"/>
<path d="M44.9619 38.2803H26.5095C26.2651 38.2803 26.0306 38.3774 25.8577 38.5503C25.6849 38.7231 25.5878 38.9576 25.5878 39.202C25.5878 39.4465 25.6849 39.681 25.8577 39.8538C26.0306 40.0267 26.2651 40.1238 26.5095 40.1238H43.7414L44.9619 38.2803Z" fill="white"/>
<path d="M32.7655 54.6757C32.8253 55.0512 33.2691 55.1707 33.5592 55.2902C33.8494 55.4097 34.1738 55.1878 34.4127 55.0683C35.8551 54.3685 37.8267 55.1963 39.3459 55.1963C39.5338 55.1963 39.7139 55.1217 39.8468 54.9889C39.9796 54.856 40.0543 54.6758 40.0543 54.4879C40.0543 54.3001 39.9796 54.1199 39.8468 53.987C39.7139 53.8542 39.5338 53.7796 39.3459 53.7796C37.545 53.7796 36.0514 53.3187 34.225 53.6174C34.2148 53.4622 34.1648 53.3123 34.0799 53.1821C33.9803 52.9586 33.8107 52.7736 33.5967 52.655C33.3826 52.5364 33.1358 52.4908 32.8935 52.5249C32.8694 52.4536 32.8379 52.385 32.7996 52.3201C32.7513 52.2398 32.6869 52.1704 32.6106 52.116C32.5342 52.0617 32.4475 52.0237 32.3558 52.0043C32.6306 51.6448 32.8183 51.2265 32.9042 50.7822C32.9901 50.338 32.9718 49.8799 32.8509 49.4439C32.7887 49.3362 32.699 49.2471 32.591 49.1856C32.483 49.1241 32.3606 49.0924 32.2363 49.0939C31.2975 49.0939 30.4867 50.0498 29.8722 50.6473C28.3741 52.1668 26.9878 53.7926 25.7243 55.5121C25.1609 56.2291 26.3985 56.9374 26.9447 56.2205C28.0894 54.7323 29.3146 53.3077 30.6147 51.9531C30.2989 52.4737 29.9661 52.9858 29.6161 53.4723C29.1126 54.249 30.3075 54.9147 30.8366 54.1892C30.9515 54.0087 31.1062 53.8568 31.289 53.7454L31.1866 54.0015L31.1097 54.1722C30.794 54.9659 31.9632 55.3244 32.407 54.7184C32.5196 54.5616 32.6195 54.3961 32.7058 54.2234C32.7131 54.3755 32.733 54.5269 32.7655 54.6757Z" fill="white"/>
<path d="M61.1783 30.2063C61.1783 30.0356 60.8369 28.4993 58.5581 27.0228C56.2793 25.5463 54.7686 25.8535 54.5979 25.8962C54.3736 25.9551 54.179 26.095 54.0517 26.2888L41.3006 45.68C41.2224 45.8009 41.1727 45.9381 41.1555 46.0811L40.302 53.2931C40.2886 53.4589 40.3194 53.6253 40.3914 53.7752C40.4634 53.9252 40.5739 54.0533 40.7117 54.1466C40.8587 54.2345 41.0268 54.281 41.1982 54.281C41.3695 54.281 41.5376 54.2345 41.6847 54.1466L48.0005 50.5534C48.1256 50.4839 48.2312 50.3842 48.3077 50.2632L61.0332 30.8635C61.1619 30.6702 61.2136 30.4358 61.1783 30.2063ZM44.2366 51.1338C43.9297 50.8518 43.5984 50.5976 43.2465 50.3742C42.8964 50.1454 42.5314 49.9401 42.1541 49.7596L42.4101 47.6003C43.884 47.975 45.1907 48.8311 46.1228 50.0328L44.2366 51.1338Z" fill="white"/>
</svg>
