<svg width="74" height="73" viewBox="0 0 74 73" fill="none" xmlns="http://www.w3.org/2000/svg">
<circle cx="37" cy="36.5" r="36.5" fill="white"/>
<path d="M45.9452 18.1002C45.9452 15.6943 47.8742 13.7653 50.2801 13.7653C52.6861 13.7653 54.6151 15.6943 54.6151 18.1002C54.6151 20.5061 52.6861 22.4352 50.2801 22.4352C47.8742 22.4352 45.9452 20.5061 45.9452 18.1002ZM54.6151 57.1149V44.11H60.0338L54.5284 27.5721C53.9215 25.7948 52.2742 24.6027 50.4102 24.6027H50.1501C48.2861 24.6027 46.6171 25.7948 46.0319 27.5721L44.1678 33.1642C46.5087 34.4647 48.1127 36.914 48.1127 39.7751V57.1149H54.6151ZM38.359 34.3564C40.158 34.3564 41.6102 32.9041 41.6102 31.1051C41.6102 29.3061 40.158 27.8539 38.359 27.8539C36.56 27.8539 35.1078 29.3061 35.1078 31.1051C35.1078 32.9041 36.56 34.3564 38.359 34.3564ZM23.1866 22.4352C25.5925 22.4352 27.5216 20.5061 27.5216 18.1002C27.5216 15.6943 25.5925 13.7653 23.1866 13.7653C20.7807 13.7653 18.8516 15.6943 18.8516 18.1002C18.8516 20.5061 20.7807 22.4352 23.1866 22.4352ZM27.5216 57.1149V41.9426H30.7728V28.9376C30.7728 26.5534 28.8221 24.6027 26.4378 24.6027H19.9354C17.5511 24.6027 15.6004 26.5534 15.6004 28.9376V41.9426H18.8516V57.1149H27.5216ZM41.6102 57.1149V48.445H43.7777V39.7751C43.7777 37.9977 42.3038 36.5238 40.5265 36.5238H36.1915C34.4142 36.5238 32.9403 37.9977 32.9403 39.7751V48.445H35.1078V57.1149H41.6102Z" fill="#AF9469"/>
</svg>
