<svg width="74" height="73" viewBox="0 0 74 73" fill="none" xmlns="http://www.w3.org/2000/svg">
<circle cx="37" cy="36.5" r="36.5" fill="#AF9469"/>
<path d="M50.8438 43.4606L43.5123 50.7916C43.3127 50.9788 43.0707 51.1142 42.8069 51.1873C42.5431 51.2601 42.2657 51.2679 41.9984 51.2103L30.4437 48.3216C30.2328 48.2625 30.0359 48.1609 29.8659 48.0228L18.9688 39.5159L25.4632 27.3041L35.6833 24.3158C36.0463 24.2115 36.4346 24.2399 36.779 24.3955L43.6719 27.5231H39.5482C39.3412 27.5223 39.1361 27.5624 38.9447 27.641C38.7533 27.7196 38.579 27.8352 38.4323 27.9811L30.623 35.7709C30.4635 35.9343 30.3406 36.13 30.2627 36.3448C30.1845 36.5596 30.1526 36.7883 30.1697 37.0164C30.1869 37.2444 30.2518 37.4662 30.3608 37.6669C30.4701 37.8677 30.6203 38.0428 30.8024 38.1813L31.8783 38.998C32.9829 39.8225 34.3245 40.2681 35.7031 40.2681C37.0817 40.2681 38.4233 39.8225 39.528 38.998L42.0781 37.0856L50.8438 43.4606Z" fill="black" fill-opacity="0.1"/>
<path fill-rule="evenodd" clip-rule="evenodd" d="M60.6591 37.915C60.6591 37.915 60.2405 38.4027 59.6657 38.6899L59.6646 38.6905L59.6634 38.6911L59.6624 38.6916L54.7417 41.142C53.9647 41.5289 53.0211 41.223 52.6189 40.4538L46.2439 28.2616L46.2307 28.2359C45.8371 27.4486 46.1562 26.4913 46.9435 26.0977L51.9129 23.613C51.9129 23.613 53.0759 23.0202 54.3189 23.4189C54.3189 23.4189 55.5619 23.8176 56.1611 24.9724L61.0579 34.3481C61.0579 34.3481 61.3591 34.9173 61.4157 35.5588C61.4157 35.5588 61.4722 36.2002 61.2754 36.8133C61.2754 36.8133 61.0785 37.4264 60.6591 37.915ZM58.2405 35.8388L53.3428 26.4617L49.8206 28.2228L54.7195 37.5922L58.2405 35.8388Z" fill="#EAEAEA"/>
<path fill-rule="evenodd" clip-rule="evenodd" d="M26.7566 28.0414L20.3816 40.2535C19.9788 41.0251 19.0315 41.3308 18.2537 40.9403L13.333 38.47C13.333 38.47 12.7688 38.1936 12.3473 37.7074C12.3473 37.7074 11.9258 37.2211 11.7274 36.609C11.7274 36.609 11.529 35.9968 11.5852 35.3558C11.5852 35.3558 11.6414 34.7147 11.9433 34.1464L16.8389 24.7731C16.8389 24.7731 17.4357 23.6259 18.666 23.2197C18.666 23.2197 19.8963 22.8135 21.0611 23.3808L26.0565 25.8784C26.8438 26.272 27.1629 27.2293 26.7692 28.0166L26.7566 28.0414ZM19.6654 26.2465L23.1804 28.004L18.2818 37.3878L14.7677 35.6237L19.6642 26.2487L19.6654 26.2465Z" fill="#EAEAEA"/>
<path d="M19.9497 38.26L30.8467 46.7665L30.8706 46.7855L42.3449 49.6541C42.3638 49.6562 42.3824 49.6511 42.3824 49.6511C42.4009 49.646 42.4159 49.6346 42.4159 49.6346L49.6715 42.3789L52.8175 38.6824C53.0915 38.3605 53.4821 38.1606 53.9034 38.1267C53.946 38.1233 53.9886 38.1216 54.0312 38.1216C54.4098 38.1216 54.7759 38.2563 55.0642 38.5016C55.3861 38.7756 55.586 39.1662 55.6199 39.5875C55.6232 39.629 55.6249 39.6706 55.625 39.7122L55.625 39.7153C55.625 40.0939 55.4903 40.46 55.245 40.7483L52.0575 44.4936C52.0298 44.5261 52.0009 44.5574 51.9707 44.5876L44.6395 51.9188C44.6269 51.9314 44.6141 51.9438 44.6011 51.956C44.0106 52.5081 43.2314 52.7234 43.2314 52.7234C42.4522 52.9387 41.662 52.7681 41.662 52.7681C41.6452 52.7645 41.6285 52.7606 41.6119 52.7564L30.0572 49.8677L30.0158 49.8568C29.3758 49.6784 28.8853 49.2791 28.8853 49.2791L17.9883 40.7726C17.6012 40.4704 17.375 40.0069 17.375 39.5161C17.375 39.2063 17.4653 38.9033 17.6348 38.644C17.6591 38.6067 17.6851 38.5705 17.7125 38.5354C18.0145 38.1485 18.4779 37.9224 18.9688 37.9224C19.2785 37.9224 19.5816 38.0126 19.8409 38.1822C19.8781 38.2065 19.9144 38.2324 19.9497 38.26Z" fill="#EAEAEA"/>
<path d="M39.5507 29.1167H47.6562C48.5364 29.1167 49.25 28.4032 49.25 27.523C49.25 26.6428 48.5364 25.9292 47.6562 25.9292H39.548C38.9227 25.927 38.3391 26.1667 38.3391 26.1667C37.7555 26.4064 37.3083 26.8514 37.3083 26.8514L29.4975 34.6422C29.0006 35.1522 28.7649 35.7997 28.7649 35.7997C28.5293 36.4473 28.5804 37.1345 28.5804 37.1345C28.6315 37.8217 28.9603 38.4273 28.9603 38.4273C29.2892 39.0328 29.8378 39.4499 29.8378 39.4499L30.9144 40.2673C33.0506 41.8618 35.7031 41.8618 35.7031 41.8618C38.3556 41.8618 40.4814 40.2752 40.4814 40.2752L42.0927 39.0667L49.906 44.7491C50.1787 44.9475 50.5069 45.0542 50.8437 45.0542C50.872 45.0542 50.9002 45.0535 50.9284 45.052C51.4079 45.0265 51.8503 44.7862 52.1327 44.3979C52.3308 44.1255 52.4375 43.7973 52.4375 43.4605C52.4375 43.4322 52.4367 43.404 52.4352 43.3758C52.4097 42.8964 52.1694 42.4539 51.7811 42.1715L43.0155 35.7965C42.4497 35.385 41.6816 35.3907 41.1219 35.8105L38.5748 37.7207C37.2973 38.6743 35.7031 38.6743 35.7031 38.6743C34.109 38.6743 32.8419 37.7286 32.8419 37.7286L31.7669 36.9124C31.7635 36.9099 31.7614 36.9061 31.7614 36.9061C31.7594 36.9023 31.7591 36.8981 31.7591 36.8981C31.7588 36.8938 31.7602 36.8898 31.7602 36.8898L31.7603 36.8889C31.7595 36.8882 31.7512 36.8963 31.7512 36.8963L39.5507 29.1167Z" fill="#EAEAEA"/>
<path d="M43.0133 28.9745C43.2202 29.0683 43.4447 29.1169 43.6719 29.1169C43.6991 29.1169 43.7263 29.1162 43.7535 29.1148C44.3486 29.0843 44.877 28.7243 45.1232 28.1817C45.2171 27.9748 45.2656 27.7503 45.2656 27.5232L45.2654 27.497C45.2624 27.3143 45.228 27.1336 45.1638 26.9626C45.0151 26.5669 44.7153 26.2465 44.3304 26.0718L37.4375 22.9441C36.3688 22.4611 35.2439 22.7837 35.2439 22.7837L25.0163 25.7742C24.6103 25.8929 24.2683 26.1679 24.0654 26.5386C23.9369 26.7733 23.8695 27.0365 23.8695 27.304L23.8697 27.3294C23.872 27.4723 23.8935 27.6142 23.9336 27.7513C24.1323 28.4308 24.7554 28.8978 25.4633 28.8978L25.4724 28.8977C25.6207 28.8969 25.7682 28.8753 25.9106 28.8337L36.1225 25.8477L43.0133 28.9745Z" fill="#EAEAEA"/>
<path d="M23.2005 48.4522C22.9106 48.2009 22.5399 48.0625 22.1562 48.0625C22.1185 48.0625 22.0808 48.0638 22.0432 48.0665C21.6216 48.0965 21.2292 48.2927 20.9522 48.612C20.7009 48.9019 20.5625 49.2726 20.5625 49.6562C20.5625 49.694 20.5638 49.7317 20.5665 49.7693C20.5965 50.1909 20.7927 50.5833 21.112 50.8603L25.6144 54.765C26.181 55.2715 26.9422 55.449 26.9422 55.449L32.9223 56.9589C33.0499 56.9911 33.1809 57.0074 33.3125 57.0074C33.3292 57.0074 33.3459 57.0072 33.3626 57.0066C34.0735 56.9843 34.6836 56.4935 34.8578 55.8038C34.89 55.6763 34.9062 55.5452 34.9062 55.4137C34.9062 55.3892 34.9057 55.3648 34.9046 55.3404C34.8925 55.0779 34.8157 54.8225 34.681 54.5969C34.4644 54.2339 34.1125 53.9719 33.7027 53.8684L27.7062 52.3544L27.6973 52.3521L23.2005 48.4522Z" fill="#EAEAEA"/>
</svg>
