<svg width="27" height="32" viewBox="0 0 27 32" fill="none" xmlns="http://www.w3.org/2000/svg">
<g clip-path="url(#clip0_35_1204)">
<path d="M13.4998 19.1735C16.9927 19.1735 19.8332 16.333 19.8332 12.8402C19.8332 9.34734 16.9927 6.50684 13.4998 6.50684C10.007 6.50684 7.1665 9.34734 7.1665 12.8402C7.1665 16.333 10.007 19.1735 13.4998 19.1735ZM13.4998 9.6735C15.2463 9.6735 16.6665 11.0938 16.6665 12.8402C16.6665 14.5866 15.2463 16.0068 13.4998 16.0068C11.7534 16.0068 10.3332 14.5866 10.3332 12.8402C10.3332 11.0938 11.7534 9.6735 13.4998 9.6735Z" fill="#AF9469"/>
<path d="M12.2487 31.5455C12.5166 31.7369 12.8377 31.8398 13.167 31.8398C13.4963 31.8398 13.8173 31.7369 14.0853 31.5455C14.5667 31.2051 25.8796 23.0367 25.8337 12.84C25.8337 5.85592 20.1511 0.17334 13.167 0.17334C6.18291 0.17334 0.500322 5.85592 0.500322 12.8321C0.454406 23.0367 11.7673 31.2051 12.2487 31.5455ZM13.167 3.34001C18.4062 3.34001 22.667 7.60076 22.667 12.8479C22.7002 19.8748 15.7193 26.1843 13.167 28.2538C10.6162 26.1828 3.63374 19.8716 3.66699 12.84C3.66699 7.60076 7.92774 3.34001 13.167 3.34001Z" fill="#AF9469"/>
</g>
<defs>
<clipPath id="clip0_35_1204">
<rect width="26" height="32" fill="white" transform="translate(0.5 0.00683594)"/>
</clipPath>
</defs>
</svg>
