<svg width="28" height="22" viewBox="0 0 28 22" fill="none" xmlns="http://www.w3.org/2000/svg">
<g clip-path="url(#clip0_35_1216)">
<path d="M25.8125 0.694336H1.4375C0.918945 0.694336 0.5 1.11328 0.5 1.63184V20.3818C0.5 20.9004 0.918945 21.3193 1.4375 21.3193H25.8125C26.3311 21.3193 26.75 20.9004 26.75 20.3818V1.63184C26.75 1.11328 26.3311 0.694336 25.8125 0.694336ZM24.6406 3.94043V19.21H2.60938V3.94043L1.80078 3.31055L2.95215 1.83105L4.20605 2.80664H23.0469L24.3008 1.83105L25.4521 3.31055L24.6406 3.94043ZM23.0469 2.80371L13.625 10.1279L4.20312 2.80371L2.94922 1.82812L1.79785 3.30762L2.60645 3.9375L12.6143 11.7188C12.9021 11.9423 13.2561 12.0637 13.6206 12.0637C13.9851 12.0637 14.3391 11.9423 14.627 11.7188L24.6406 3.94043L25.4492 3.31055L24.2979 1.83105L23.0469 2.80371Z" fill="#AF9469"/>
</g>
<defs>
<clipPath id="clip0_35_1216">
<rect width="27" height="22" fill="white" transform="translate(0.5 0.00683594)"/>
</clipPath>
</defs>
</svg>
