<svg width="74" height="73" viewBox="0 0 74 73" fill="none" xmlns="http://www.w3.org/2000/svg">
<g filter="url(#filter0_d_66_236)">
<path fill-rule="evenodd" clip-rule="evenodd" d="M38.8063 1.39694C47.1028 1.80469 54.8336 5.22594 60.7383 11.1346C67.0366 17.4368 70.5034 25.8142 70.5 34.7232C70.4925 53.1077 55.5259 68.0662 37.1403 68.0662C30.2264 68.0662 24.7322 65.9419 21.1846 64.0078L3.5 68.6444L8.23281 51.366C5.31346 46.3095 3.77731 40.5736 3.77972 34.6967C3.7871 16.3127 18.7523 1.35571 37.1399 1.35571L38.8063 1.39694ZM22.0039 57.9715L23.0165 58.572C27.2737 61.0971 32.1535 62.4331 37.1289 62.435H37.1402C52.4228 62.435 64.8613 50.0025 64.8674 34.7213C64.8702 27.3163 61.9889 20.3533 56.754 15.115C51.5188 9.87636 44.5572 6.98973 37.1513 6.98733C21.8569 6.98733 9.4183 19.4186 9.4122 34.6987C9.41012 39.9354 10.876 45.0352 13.6515 49.4475L14.3108 50.4962L11.5097 60.7229L22.0039 57.9715ZM53.9466 42.6521C53.7383 42.3044 53.1827 42.096 52.3492 41.679C51.5156 41.2619 47.4175 39.2464 46.6535 38.9681C45.8894 38.6905 45.3337 38.5516 44.7781 39.3853C44.2225 40.2193 42.625 42.096 42.1386 42.6521C41.6525 43.2081 41.1662 43.2777 40.3328 42.8606C39.4993 42.4438 36.8134 41.5638 33.6296 38.7254C31.1516 36.5162 29.4787 33.7881 28.9924 32.954C28.5063 32.12 28.9406 31.669 29.3579 31.2537C29.7329 30.8803 30.1916 30.2805 30.6083 29.794C31.0251 29.3077 31.1639 28.9599 31.4419 28.4041C31.7197 27.848 31.5807 27.3616 31.3724 26.9446C31.1639 26.5274 29.497 22.4265 28.8024 20.7583C28.1257 19.1339 27.4385 19.3538 26.9269 19.3281C26.4412 19.3041 25.885 19.2988 25.3294 19.2988C24.7737 19.2988 23.8706 19.5072 23.1066 20.3414C22.3425 21.1754 20.1891 23.1911 20.1891 27.2917C20.1891 31.3927 23.1761 35.3541 23.5928 35.9102C24.0096 36.4665 29.4705 44.8812 37.8322 48.4903C39.8209 49.3488 41.3736 49.8613 42.5841 50.2453C44.581 50.8794 46.398 50.79 47.8343 50.5754C49.4358 50.3363 52.766 48.5599 53.4605 46.6141C54.1551 44.6676 54.1551 42.9996 53.9466 42.6521Z" fill="white"/>
<mask id="mask0_66_236" style="mask-type:alpha" maskUnits="userSpaceOnUse" x="9" y="6" width="56" height="57">
<path fill-rule="evenodd" clip-rule="evenodd" d="M22.0048 57.9716L23.0174 58.5721C27.2746 61.0972 32.1544 62.4332 37.1298 62.4351H37.1411C52.4237 62.4351 64.8621 50.0026 64.8682 34.7214C64.8711 27.3163 61.9898 20.3534 56.7549 15.1151C51.5197 9.87646 44.5581 6.98983 37.1521 6.98743C21.8578 6.98743 9.41919 19.4187 9.41309 34.6988C9.411 39.9355 10.8769 45.0353 13.6524 49.4475L14.3117 50.4963L11.5106 60.723L22.0048 57.9716ZM53.9475 42.6522C53.7392 42.3045 53.1836 42.0961 52.3501 41.679C51.5165 41.262 47.4184 39.2465 46.6544 38.9682C45.8903 38.6906 45.3345 38.5517 44.7789 39.3854C44.2234 40.2194 42.6259 42.0961 42.1395 42.6522C41.6534 43.2082 41.1671 43.2778 40.3337 42.8607C39.5002 42.4439 36.8143 41.5639 33.6305 38.7255C31.1525 36.5163 29.4796 33.7882 28.9933 32.9541C28.5072 32.1201 28.9415 31.6691 29.3587 31.2538C29.7338 30.8804 30.1925 30.2806 30.6092 29.7941C31.026 29.3078 31.1648 28.96 31.4428 28.4042C31.7206 27.8481 31.5816 27.3617 31.3733 26.9447C31.1648 26.5275 29.4979 22.4266 28.8033 20.7584C28.1266 19.134 27.4394 19.3539 26.9277 19.3282C26.4421 19.3042 25.8859 19.2989 25.3303 19.2989C24.7745 19.2989 23.8715 19.5072 23.1074 20.3415C22.3434 21.1754 20.19 23.1912 20.19 27.2918C20.19 31.3928 23.1769 35.3542 23.5937 35.9103C24.0105 36.4666 29.4714 44.8813 37.8331 48.4904C39.8218 49.3489 41.3745 49.8614 42.585 50.2454C44.5819 50.8795 46.3989 50.7901 47.8352 50.5755C49.4367 50.3364 52.7668 48.56 53.4614 46.6142C54.156 44.6677 54.156 42.9997 53.9475 42.6522Z" fill="black"/>
</mask>
<g mask="url(#mask0_66_236)">
<path d="M82.9497 -11.4764H-10.7803V82.2537H82.9497V-11.4764Z" fill="url(#paint0_linear_66_236)"/>
</g>
</g>
<defs>
<filter id="filter0_d_66_236" x="0.5" y="0.355713" width="73" height="73.2887" filterUnits="userSpaceOnUse" color-interpolation-filters="sRGB">
<feFlood flood-opacity="0" result="BackgroundImageFix"/>
<feColorMatrix in="SourceAlpha" type="matrix" values="0 0 0 0 0 0 0 0 0 0 0 0 0 0 0 0 0 0 127 0" result="hardAlpha"/>
<feOffset dy="2"/>
<feGaussianBlur stdDeviation="1.5"/>
<feComposite in2="hardAlpha" operator="out"/>
<feColorMatrix type="matrix" values="0 0 0 0 0 0 0 0 0 0 0 0 0 0 0 0 0 0 0.1 0"/>
<feBlend mode="normal" in2="BackgroundImageFix" result="effect1_dropShadow_66_236"/>
<feBlend mode="normal" in="SourceGraphic" in2="effect1_dropShadow_66_236" result="shape"/>
</filter>
<linearGradient id="paint0_linear_66_236" x1="36.0849" y1="82.2537" x2="36.0849" y2="-11.4764" gradientUnits="userSpaceOnUse">
<stop stop-color="#25CF43"/>
<stop offset="1" stop-color="#61FD7D"/>
</linearGradient>
</defs>
</svg>
